<svg xmlns="http://www.w3.org/2000/svg" xmlns:svg="http://www.w3.org/2000/svg" xmlns:xlink="http://www.w3.org/1999/xlink" version="1.0" height="820pt" width="1180pt" viewBox="295 107 1188 826" ><defs><style type="text/css">
            @font-face {
                font-family: 'lt_regular';
                src: url('https://app.creately.com/diagram/assets/fonts/lato/lt-regular-webfont.woff2') format('woff2'),
                    url('https://app.creately.com/diagram/assets/fonts/lato/lt-regular-webfont.woff') format('woff');
                font-weight: normal;
                font-style: normal;
            }
            @font-face {
                font-family: 'noto_regular';
                src: url('https://app.creately.com/diagram/assets/fonts/noto/noto-regular.woff') format('woff'),
                     url('https://app.creately.com/diagram/assets/fonts/noto/noto-regular.woff2') format('woff2');
                font-weight: normal;
                font-style: normal;
            }
        p {
            margin: 0;
        }
        </style></defs><defs><style>
            span{ display: inline-block; }
        </style></defs><g id="aIkWIpPs2UV"><g transform="translate(520 200)"><rect x="0" y="0" width="100" height="50" fill="rgb(52,64,87)" stroke="#344057" stroke-width="2" stroke-linecap="round" stroke-linejoin="round" stroke-dasharray="0 0"/></g><g transform="translate(537.5, 214) rotate(0, 32.5, 11)" width="65" height="22"><text text-decoration="none" x="0" fill="#ffffff" font-size="12pt" font-family="lt_regular"  y="17">customer</text><text text-decoration="none" x="66" fill="#4b4b4b" font-size="10pt" font-family="noto_regular"  y="17"></text></g></g><g id="wnYFRbeNFCC"><g transform="translate(380 220)"><ellipse cx="50" cy="25" rx="50" ry="25" fill="rgb(56,128,189)" stroke="#3880bd" stroke-width="2" stroke-linecap="round" stroke-linejoin="round" stroke-dasharray="0 0"/></g><g transform="translate(423.5, 234) rotate(0, 6.5, 11)" width="13" height="22"><text text-decoration="underline" x="0" fill="#ffffff" font-size="12pt" font-family="lt_regular"  y="17">id</text><text text-decoration="none" x="13" fill="#4b4b4b" font-size="10pt" font-family="noto_regular"  y="17"></text></g></g><g id="lQbkYgXeP7b"><g transform="translate(370 160)"><ellipse cx="50" cy="25" rx="50" ry="25" fill="rgb(56,128,189)" stroke="#3880bd" stroke-width="2" stroke-linecap="round" stroke-linejoin="round" stroke-dasharray="0 0"/></g><g transform="translate(401, 174) rotate(0, 19, 11)" width="38" height="22"><text text-decoration="none" x="0" fill="#ffffff" font-size="12pt" font-family="lt_regular"  y="17">name</text><text text-decoration="none" x="38" fill="#4b4b4b" font-size="10pt" font-family="noto_regular"  y="17"></text></g></g><g id="J75nHm8WdNu"><g transform="translate(570 110)"><ellipse cx="50" cy="25" rx="50" ry="25" fill="rgb(56,128,189)" stroke="#3880bd" stroke-width="2" stroke-linecap="round" stroke-linejoin="round" stroke-dasharray="0 0"/></g><g transform="translate(586.5, 124) rotate(0, 33.5, 11)" width="67" height="22"><text text-decoration="none" x="0" fill="#ffffff" font-size="12pt" font-family="lt_regular"  y="17">password</text><text text-decoration="none" x="68" fill="#4b4b4b" font-size="10pt" font-family="noto_regular"  y="17"></text></g></g><g id="s6LGRWzQKLQ"><g transform="translate(420 280)"><ellipse cx="50" cy="25" rx="50" ry="25" fill="rgb(56,128,189)" stroke="#3880bd" stroke-width="2" stroke-linecap="round" stroke-linejoin="round" stroke-dasharray="0 0"/></g><g transform="translate(442, 294) rotate(0, 28, 11)" width="56" height="22"><text text-decoration="none" x="0" fill="#ffffff" font-size="12pt" font-family="lt_regular"  y="17">Address</text><text text-decoration="none" x="57" fill="#4b4b4b" font-size="10pt" font-family="noto_regular"  y="17"></text></g></g><g id="PwtddlgZFOQ"><g transform="translate(450 110)"><ellipse cx="50" cy="25" rx="50" ry="25" fill="rgb(56,128,189)" stroke="#3880bd" stroke-width="2" stroke-linecap="round" stroke-linejoin="round" stroke-dasharray="0 0"/></g><g transform="translate(462.5, 124) rotate(0, 37.5, 11)" width="75" height="22"><text text-decoration="none" x="10.5" fill="#ffffff" font-size="12pt" font-family="lt_regular"  y="17">contact&#160;</text><text text-decoration="none" x="28.5" fill="#ffffff" font-size="12pt" font-family="lt_regular"  y="39">no</text><text text-decoration="none" x="46.5" fill="#4b4b4b" font-size="10pt" font-family="noto_regular"  y="39"></text></g></g><g id="3NAiFErQVQb"><g><path d="M 570,200 L 600,158" fill="none" stroke="#9A9A9A" stroke-width="2" stroke-linecap="round" stroke-linejoin="round"/></g></g><g id="gbKSp8MgLG0"><g><path d="M 570,200 L 520,158" fill="none" stroke="#9A9A9A" stroke-width="2" stroke-linecap="round" stroke-linejoin="round"/></g></g><g id="3J1ewJEdyrL"><g><path d="M 570,200 L 470,185" fill="none" stroke="#9A9A9A" stroke-width="2" stroke-linecap="round" stroke-linejoin="round"/></g></g><g id="vJgLmZmxrLW"><g><path d="M 520,225 L 470,230" fill="none" stroke="#9A9A9A" stroke-width="2" stroke-linecap="round" stroke-linejoin="round"/></g></g><g id="RZJbxW9hLSe"><g><path d="M 570,250 L 490,282" fill="none" stroke="#9A9A9A" stroke-width="2" stroke-linecap="round" stroke-linejoin="round"/></g></g><g id="AF09VCPaS1t"><g transform="translate(790 190)"><path d="M 120,35 L 60,70 L 0,35 L 60,0 L 120,35 L 120,35 Z" fill="rgb(241,191,49)" stroke="#f1bf31" stroke-width="2" stroke-linecap="round" stroke-linejoin="round" stroke-dasharray="0 0"/></g><g transform="translate(820.5, 214) rotate(0, 29.5, 11)" width="59" height="22"><text text-decoration="none" x="0.5" fill="#ffffff" font-size="12pt" font-family="lt_regular"  y="17">reserves</text><text text-decoration="none" x="58.5" fill="#4b4b4b" font-size="10pt" font-family="noto_regular"  y="17"></text></g></g><g id="ssbtXNhQmQX"><mask id="b3146" x="606" y="211" width="198" height="28" maskUnits="userSpaceOnUse"><rect x="606" y="211" width="198" height="28" fill="white" /><rect x="631" y="212.5" width="38" height="25" fill="black" /></mask><g mask="url(#b3146)"><path d="M 790,225 L 620,225" fill="none" stroke="#9A9A9A" stroke-width="2" stroke-linecap="round" stroke-linejoin="round"/></g><g transform="translate(634, 215.5)" width="32" height="19"><text text-decoration="none" x="0.5" fill="rgb(75, 75, 75)" font-size="10pt" font-family="lt_regular"  y="15">many</text><text text-decoration="none" x="31.5" fill="#4b4b4b" font-size="10pt" font-family="noto_regular"  y="15"></text></g></g><g id="YNXYTgbMjme"><g transform="translate(1050 200)"><rect x="0" y="0" width="100" height="50" fill="rgb(52,64,87)" stroke="#344057" stroke-width="2" stroke-linecap="round" stroke-linejoin="round" stroke-dasharray="0 0"/></g><g transform="translate(1088.5, 213) rotate(0, 11.5, 12)" width="23" height="24"><text text-decoration="none" x="0.5" fill="rgb(255, 255, 255)" font-size="13pt" font-family="lt_regular"  y="19">car</text><text text-decoration="none" x="22.5" fill="#4b4b4b" font-size="10pt" font-family="noto_regular"  y="19"></text></g></g><g id="xFyd6ssVjpL"><mask id="463c3" x="896" y="211" width="168" height="28" maskUnits="userSpaceOnUse"><rect x="896" y="211" width="168" height="28" fill="white" /><rect x="1001" y="212.5" width="38" height="25" fill="black" /></mask><g mask="url(#463c3)"><path d="M 910,225 L 1050,225" fill="none" stroke="#9A9A9A" stroke-width="2" stroke-linecap="round" stroke-linejoin="round"/></g><g transform="translate(1004, 215.5)" width="32" height="19"><text text-decoration="none" x="0.5" fill="rgb(75, 75, 75)" font-size="10pt" font-family="lt_regular"  y="15">many</text><text text-decoration="none" x="31.5" fill="#4b4b4b" font-size="10pt" font-family="noto_regular"  y="15"></text></g></g><g id="fRAASLbUqwq"><g transform="translate(1120 120)"><ellipse cx="50" cy="25" rx="50" ry="25" fill="rgb(56,128,189)" stroke="#3880bd" stroke-width="2" stroke-linecap="round" stroke-linejoin="round" stroke-dasharray="0 0"/></g><g transform="translate(1151, 134) rotate(0, 19, 11)" width="38" height="22"><text text-decoration="underline" x="8" fill="#ffffff" font-size="12pt" font-family="lt_regular"  y="17">car&#160;</text><text text-decoration="underline" x="12.5" fill="#ffffff" font-size="12pt" font-family="lt_regular"  y="39">id</text><text text-decoration="none" x="25.5" fill="#4b4b4b" font-size="10pt" font-family="noto_regular"  y="39"></text></g></g><g id="KO20z70HBa5"><g transform="translate(1000 120)"><ellipse cx="50" cy="25" rx="50" ry="25" fill="rgb(56,128,189)" stroke="#3880bd" stroke-width="2" stroke-linecap="round" stroke-linejoin="round" stroke-dasharray="0 0"/></g><g transform="translate(1036.5, 134) rotate(0, 13.5, 11)" width="27" height="22"><text text-decoration="none" x="0" fill="#ffffff" font-size="12pt" font-family="lt_regular"  y="17">fuel</text><text text-decoration="none" x="27" fill="#4b4b4b" font-size="10pt" font-family="noto_regular"  y="17"></text></g></g><g id="T1H4drBOsWp"><g transform="translate(1190 180)"><ellipse cx="50" cy="24.999999999999993" rx="50" ry="24.999999999999993" fill="rgb(56,128,189)" stroke="#3880bd" stroke-width="2" stroke-linecap="round" stroke-linejoin="round" stroke-dasharray="0 0"/></g><g transform="translate(1198, 183) rotate(0, 42, 22)" width="84" height="44"><text text-decoration="none" x="0" fill="#ffffff" font-size="12pt" font-family="lt_regular"  y="17">Registration&#160;</text><text text-decoration="none" x="15" fill="#ffffff" font-size="12pt" font-family="lt_regular"  y="39">number</text><text text-decoration="none" x="69" fill="#4b4b4b" font-size="10pt" font-family="noto_regular"  y="39"></text></g></g><g id="fgRNAmA5a9z"><g transform="translate(1170 250)"><ellipse cx="55" cy="27.5" rx="55" ry="27.5" fill="rgb(56,128,189)" stroke="#3880bd" stroke-width="2" stroke-linecap="round" stroke-linejoin="round" stroke-dasharray="0 0"/><ellipse cx="55" cy="27.5" rx="50" ry="22.5" fill="rgb(56,128,189)" stroke="#3880bd" stroke-width="2" stroke-linecap="round" stroke-linejoin="round" stroke-dasharray="0 0"/></g><g transform="translate(1209.5, 266.5) rotate(0, 15.5, 11)" width="31" height="22"><text text-decoration="none" x="0" fill="#ffffff" font-size="12pt" font-family="lt_regular"  y="17">type</text><text text-decoration="none" x="31" fill="#4b4b4b" font-size="10pt" font-family="noto_regular"  y="17"></text></g></g><g id="hPnFgkyHJWw"><g transform="translate(1300 290)"><ellipse cx="50" cy="25" rx="50" ry="25" fill="rgb(56,128,189)" stroke="#3880bd" stroke-width="2" stroke-linecap="round" stroke-linejoin="round" stroke-dasharray="0 0"/></g><g transform="translate(1335, 304) rotate(0, 15, 11)" width="30" height="22"><text text-decoration="none" x="0" fill="#ffffff" font-size="12pt" font-family="lt_regular"  y="17">mini</text><text text-decoration="none" x="30" fill="#4b4b4b" font-size="10pt" font-family="noto_regular"  y="17"></text></g></g><g id="4fPiSHDHhNm"><g transform="translate(1250 340)"><ellipse cx="50" cy="25" rx="50" ry="25" fill="rgb(56,128,189)" stroke="#3880bd" stroke-width="2" stroke-linecap="round" stroke-linejoin="round" stroke-dasharray="0 0"/></g><g transform="translate(1280, 354) rotate(0, 20, 11)" width="40" height="22"><text text-decoration="none" x="0" fill="#ffffff" font-size="12pt" font-family="lt_regular"  y="17">prime</text><text text-decoration="none" x="40" fill="#4b4b4b" font-size="10pt" font-family="noto_regular"  y="17"></text></g></g><g id="WQhEwA7Pvdw"><g transform="translate(1300 230)"><ellipse cx="50" cy="25" rx="50" ry="25" fill="rgb(56,128,189)" stroke="#3880bd" stroke-width="2" stroke-linecap="round" stroke-linejoin="round" stroke-dasharray="0 0"/></g><g transform="translate(1328.5, 244) rotate(0, 21.5, 11)" width="43" height="22"><text text-decoration="none" x="0" fill="#ffffff" font-size="12pt" font-family="lt_regular"  y="17">Sedan</text><text text-decoration="none" x="43" fill="#4b4b4b" font-size="10pt" font-family="noto_regular"  y="17"></text></g></g><g id="xrFcXc96xL3"><g><path d="M 1100,200 L 1090,160" fill="none" stroke="#9A9A9A" stroke-width="2" stroke-linecap="round" stroke-linejoin="round"/></g></g><g id="vXJVXhHSOje"><g><path d="M 1100,200 L 1130,160" fill="none" stroke="#9A9A9A" stroke-width="2" stroke-linecap="round" stroke-linejoin="round"/></g></g><g id="KtnWAWtDH97"><g><path d="M 1150,225 L 1190,205" fill="none" stroke="#9A9A9A" stroke-width="2" stroke-linecap="round" stroke-linejoin="round"/></g></g><g id="2ceUWSeLI77"><g><path d="M 1150,225 L 1180,260" fill="none" stroke="#9A9A9A" stroke-width="2" stroke-linecap="round" stroke-linejoin="round"/></g></g><g id="CGh5bkpfFqc"><g><path d="M 1270,275 L 1300,255" fill="none" stroke="#9A9A9A" stroke-width="2" stroke-linecap="round" stroke-linejoin="round"/></g></g><g id="NzZ6IhaSMFU"><g><path d="M 1260,290 L 1310,300" fill="none" stroke="#9A9A9A" stroke-width="2" stroke-linecap="round" stroke-linejoin="round"/></g></g><g id="6OyeHwn1Jlv"><g><path d="M 1240,298 L 1280,342" fill="none" stroke="#9A9A9A" stroke-width="2" stroke-linecap="round" stroke-linejoin="round"/></g></g><g id="4YoOt8JWjfT"><g transform="translate(900 850)"><ellipse cx="50" cy="25" rx="50" ry="25" fill="rgb(56,128,189)" stroke="#3880bd" stroke-width="2" stroke-linecap="round" stroke-linejoin="round" stroke-dasharray="0 0"/></g><g transform="translate(923.5, 865.5) rotate(0, 26.5, 9.5)" width="53" height="19"><text text-decoration="none" x="0" fill="#ffffff" font-size="10pt" font-family="lt_regular"  y="15">Attribute</text><text text-decoration="none" x="53" fill="#4b4b4b" font-size="10pt" font-family="noto_regular"  y="15"></text></g></g><g id="XztxZXRxEwR"><g><path d="M 850,260 L 850,450" fill="none" stroke="#7E7E7E" stroke-width="2" stroke-linecap="round" stroke-linejoin="round"/></g></g><g id="rStGwf4GZoq"><g transform="translate(800 450)"><rect x="0" y="0" width="100" height="50" fill="rgb(52,64,87)" stroke="#344057" stroke-width="2" stroke-linecap="round" stroke-linejoin="round" stroke-dasharray="0 0"/></g><g transform="translate(822, 464) rotate(0, 28, 11)" width="56" height="22"><text text-decoration="none" x="0" fill="rgb(255, 255, 255)" font-size="12pt" font-family="lt_regular"  y="17">booking</text><text text-decoration="none" x="56" fill="#4b4b4b" font-size="10pt" font-family="noto_regular"  y="17"></text></g></g><g id="f1xBb0bQQQ1"><g><path d="M 850,500 L 850,650" fill="none" stroke="#7E7E7E" stroke-width="2" stroke-linecap="round" stroke-linejoin="round"/></g></g><g id="jn3Lv9SbuO2"><g transform="translate(800 650)"><rect x="0" y="0" width="100" height="50" fill="rgb(52,64,87)" stroke="#344057" stroke-width="2" stroke-linecap="round" stroke-linejoin="round" stroke-dasharray="0 0"/></g><g transform="translate(819, 664) rotate(0, 31, 11)" width="62" height="22"><text text-decoration="none" x="0" fill="rgb(255, 255, 255)" font-size="12pt" font-family="lt_regular"  y="17">Payment</text><text text-decoration="none" x="62" fill="#4b4b4b" font-size="10pt" font-family="noto_regular"  y="17"></text></g></g><g id="TTsfeioCIWA"><g transform="translate(420 450)"><rect x="0" y="0" width="99.99999999999994" height="49.99999999999997" fill="rgb(52,64,87)" stroke="#344057" stroke-width="2" stroke-linecap="round" stroke-linejoin="round" stroke-dasharray="0 0"/></g><g transform="translate(448, 464) rotate(0, 22, 11)" width="44" height="22"><text text-decoration="none" x="0" fill="rgb(255, 255, 255)" font-size="12pt" font-family="lt_regular"  y="17">Driver</text><text text-decoration="none" x="44" fill="#4b4b4b" font-size="10pt" font-family="noto_regular"  y="17"></text></g></g><g id="6eu4adUd7XS"><mask id="335fd" x="506" y="461" width="308" height="28" maskUnits="userSpaceOnUse"><rect x="506" y="461" width="308" height="28" fill="white" />undefined<rect x="531" y="462.5" width="38" height="25" fill="black" />undefined</mask><g mask="url(#335fd)"><path d="M 800,475 L 520,475" fill="none" stroke="#9A9A9A" stroke-width="2" stroke-linecap="round" stroke-linejoin="round"/></g>undefined<g transform="translate(534, 465.5)" width="32" height="19"><text text-decoration="none" x="0.5" fill="#4b4b4b" font-size="10pt" font-family="lt_regular"  y="15">many</text><text text-decoration="none" x="31.5" fill="#4b4b4b" font-size="10pt" font-family="noto_regular"  y="15"></text></g>undefined</g><g id="u3Hv1GINPoo"><mask id="47093" x="456" y="236" width="128" height="228" maskUnits="userSpaceOnUse"><rect x="456" y="236" width="128" height="228" fill="white" /><rect x="537.5835921350013" y="264.3328157299975" width="38" height="25" fill="black" /><rect x="464.41640786499875" y="410.6671842700025" width="38" height="25" fill="black" /></mask><g mask="url(#47093)"><path d="M 570,250 L 470,450" fill="none" stroke="#9A9A9A" stroke-width="2" stroke-linecap="round" stroke-linejoin="round"/></g><g transform="translate(540.5835921350013, 267.3328157299975)" width="32" height="19"><text text-decoration="none" x="0.5" fill="#4b4b4b" font-size="10pt" font-family="lt_regular"  y="15">many</text><text text-decoration="none" x="31.5" fill="#4b4b4b" font-size="10pt" font-family="noto_regular"  y="15"></text></g><g transform="translate(467.41640786499875, 413.6671842700025)" width="32" height="19"><text text-decoration="none" x="0.5" fill="#4b4b4b" font-size="10pt" font-family="lt_regular"  y="15">many</text><text text-decoration="none" x="31.5" fill="#4b4b4b" font-size="10pt" font-family="noto_regular"  y="15"></text></g></g><g id="diwddeXcrae"><g transform="translate(340.00000000000006 360)"><ellipse cx="49.999999999999986" cy="24.999999999999993" rx="49.999999999999986" ry="24.999999999999993" fill="rgb(56,128,189)" stroke="#3880bd" stroke-width="2" stroke-linecap="round" stroke-linejoin="round" stroke-dasharray="0 0"/></g><g transform="translate(383.5, 374) rotate(0, 6.5, 11)" width="13" height="22"><text text-decoration="underline" x="0" fill="#ffffff" font-size="12pt" font-family="lt_regular"  y="17">id</text><text text-decoration="none" x="13" fill="#4b4b4b" font-size="10pt" font-family="noto_regular"  y="17"></text></g></g><g id="UG72ffp1In2"><g transform="translate(300.00000000000006 490)"><ellipse cx="49.999999999999986" cy="24.999999999999993" rx="49.999999999999986" ry="24.999999999999993" fill="rgb(56,128,189)" stroke="#3880bd" stroke-width="2" stroke-linecap="round" stroke-linejoin="round" stroke-dasharray="0 0"/></g><g transform="translate(321.5, 493) rotate(0, 28.5, 22)" width="57" height="44"><text text-decoration="none" x="2.5" fill="#ffffff" font-size="12pt" font-family="lt_regular"  y="17">License&#160;</text><text text-decoration="none" x="0" fill="#ffffff" font-size="12pt" font-family="lt_regular"  y="39">Number</text><text text-decoration="none" x="57" fill="#4b4b4b" font-size="10pt" font-family="noto_regular"  y="39"></text></g></g><g id="YsahcH7fHsP"><g transform="translate(300 420)"><ellipse cx="49.999999999999986" cy="24.999999999999993" rx="49.999999999999986" ry="24.999999999999993" fill="rgb(56,128,189)" stroke="#3880bd" stroke-width="2" stroke-linecap="round" stroke-linejoin="round" stroke-dasharray="0 0"/></g><g transform="translate(316.5, 434) rotate(0, 33.5, 11)" width="67" height="22"><text text-decoration="none" x="0" fill="#ffffff" font-size="12pt" font-family="lt_regular"  y="17">Password</text><text text-decoration="none" x="69" fill="#4b4b4b" font-size="10pt" font-family="noto_regular"  y="17"></text></g></g><g id="AkQfbTO4ftJ"><g transform="translate(369.99999999999994 540)"><ellipse cx="49.999999999999986" cy="24.999999999999993" rx="49.999999999999986" ry="24.999999999999993" fill="rgb(56,128,189)" stroke="#3880bd" stroke-width="2" stroke-linecap="round" stroke-linejoin="round" stroke-dasharray="0 0"/></g><g transform="translate(400.4999999999999, 554) rotate(0, 19.5, 11)" width="39" height="22"><text text-decoration="none" x="0.5" fill="#ffffff" font-size="12pt" font-family="lt_regular"  y="17">name</text><text text-decoration="none" x="38.5" fill="#4b4b4b" font-size="10pt" font-family="noto_regular"  y="17"></text></g></g><g id="VFvtaDzZISb"><g transform="translate(489.9999999999999 540)"><ellipse cx="49.999999999999986" cy="24.999999999999993" rx="49.999999999999986" ry="24.999999999999993" fill="rgb(56,128,189)" stroke="#3880bd" stroke-width="2" stroke-linecap="round" stroke-linejoin="round" stroke-dasharray="0 0"/></g><g transform="translate(502.4999999999999, 554) rotate(0, 37.5, 11)" width="75" height="22"><text text-decoration="none" x="10.5" fill="#ffffff" font-size="12pt" font-family="lt_regular"  y="17">contact&#160;</text><text text-decoration="none" x="28.5" fill="#ffffff" font-size="12pt" font-family="lt_regular"  y="39">no</text><text text-decoration="none" x="46.5" fill="#4b4b4b" font-size="10pt" font-family="noto_regular"  y="39"></text></g></g><g id="orPMlSeIrdk"><g><path d="M 470,450 L 430,400" fill="none" stroke="#9A9A9A" stroke-width="2" stroke-linecap="round" stroke-linejoin="round"/></g></g><g id="nmA65AKb4sf"><g><path d="M 420,475 L 400,445" fill="none" stroke="#9A9A9A" stroke-width="2" stroke-linecap="round" stroke-linejoin="round"/></g></g><g id="h7pJMHjyt5G"><g><path d="M 470,500 L 400,515" fill="none" stroke="#9A9A9A" stroke-width="2" stroke-linecap="round" stroke-linejoin="round"/></g></g><g id="QmwjXUBvDCV"><g><path d="M 470,500 L 440,542" fill="none" stroke="#9A9A9A" stroke-width="2" stroke-linecap="round" stroke-linejoin="round"/></g></g><g id="zak9dQG4o7o"><g><path d="M 470,500 L 540,540" fill="none" stroke="#9A9A9A" stroke-width="2" stroke-linecap="round" stroke-linejoin="round"/></g></g><g id="7p2c1T8Jbps"><g transform="translate(1010 440)"><path d="M 120,35 L 60,70 L 0,35 L 60,0 L 120,35 L 120,35 Z" fill="rgb(241,191,49)" stroke="#f1bf31" stroke-width="2" stroke-linecap="round" stroke-linejoin="round" stroke-dasharray="0 0"/></g><g transform="translate(1043.5, 464) rotate(0, 26.5, 11)" width="53" height="22"><text text-decoration="none" x="0" fill="#ffffff" font-size="12pt" font-family="lt_regular"  y="17">confirm</text><text text-decoration="none" x="54" fill="#4b4b4b" font-size="10pt" font-family="noto_regular"  y="17"></text></g></g><g id="FEfJ0suvt24"><g><path d="M 900,475 L 1010,475" fill="none" stroke="#7E7E7E" stroke-width="2" stroke-linecap="round" stroke-linejoin="round"/></g></g><g id="r8OumkxDSML"><g transform="translate(1210 450)"><rect x="0" y="0" width="99.99999999999997" height="49.999999999999986" fill="rgb(52,64,87)" stroke="#344057" stroke-width="2" stroke-linecap="round" stroke-linejoin="round" stroke-dasharray="0 0"/></g><g transform="translate(1247, 464) rotate(0, 13, 11)" width="26" height="22"><text text-decoration="none" x="0" fill="#ffffff" font-size="12pt" font-family="lt_regular"  y="17">Trip</text><text text-decoration="none" x="28" fill="#4b4b4b" font-size="10pt" font-family="noto_regular"  y="17"></text></g></g><g id="Uf3qYQiLbSd"><mask id="28636" x="1086" y="236" width="188" height="228" maskUnits="userSpaceOnUse"><rect x="1086" y="236" width="188" height="228" fill="white" /><rect x="1104.7408514266326" y="260.9260642832909" width="28" height="25" fill="black" />undefined</mask><g mask="url(#28636)"><path d="M 1100,250 L 1260,450" fill="none" stroke="#9A9A9A" stroke-width="2" stroke-linecap="round" stroke-linejoin="round"/></g><g transform="translate(1107.7408514266326, 263.9260642832909)" width="22" height="19"><text text-decoration="none" x="0.5" fill="#4b4b4b" font-size="10pt" font-family="lt_regular"  y="15">one</text><text text-decoration="none" x="21.5" fill="#4b4b4b" font-size="10pt" font-family="noto_regular"  y="15"></text></g>undefined</g><g id="XaOuwAG4stc"><g transform="translate(1350 510)"><ellipse cx="50" cy="25" rx="50" ry="25" fill="rgb(56,128,189)" stroke="#3880bd" stroke-width="2" stroke-linecap="round" stroke-linejoin="round" stroke-dasharray="0 0"/></g><g transform="translate(1376.5, 524) rotate(0, 23.5, 11)" width="47" height="22"><text text-decoration="none" x="0" fill="#ffffff" font-size="12pt" font-family="lt_regular"  y="17">source</text><text text-decoration="none" x="47" fill="#4b4b4b" font-size="10pt" font-family="noto_regular"  y="17"></text></g></g><g id="CcgXp5WCnnh"><g transform="translate(1260 540)"><ellipse cx="50" cy="25" rx="50" ry="25" fill="rgb(56,128,189)" stroke="#3880bd" stroke-width="2" stroke-linecap="round" stroke-linejoin="round" stroke-dasharray="0 0"/></g><g transform="translate(1269.5, 554) rotate(0, 40.5, 11)" width="81" height="22"><text text-decoration="none" x="0" fill="#ffffff" font-size="12pt" font-family="lt_regular"  y="17">Destination</text><text text-decoration="none" x="82" fill="#4b4b4b" font-size="10pt" font-family="noto_regular"  y="17"></text></g></g><g id="1ydm47MGNPH"><g transform="translate(1380 450)"><ellipse cx="50" cy="25" rx="50" ry="25" fill="rgb(56,128,189)" stroke="#3880bd" stroke-width="2" stroke-linecap="round" stroke-linejoin="round" stroke-dasharray="0 0"/></g><g transform="translate(1395, 453) rotate(0, 35, 22)" width="70" height="44"><text text-decoration="none" x="0" fill="#ffffff" font-size="12pt" font-family="lt_regular"  y="17">Estimated&#160;</text><text text-decoration="none" x="18" fill="#ffffff" font-size="12pt" font-family="lt_regular"  y="39">Time</text><text text-decoration="none" x="52" fill="#4b4b4b" font-size="10pt" font-family="noto_regular"  y="39"></text></g></g><g id="iiqMgKE1OpU"><g transform="translate(1380 390)"><ellipse cx="50" cy="25" rx="50" ry="25" fill="rgb(56,128,189)" stroke="#3880bd" stroke-width="2" stroke-linecap="round" stroke-linejoin="round" stroke-dasharray="0 0"/></g><g transform="translate(1405.5, 393) rotate(0, 24.5, 22)" width="49" height="44"><text text-decoration="none" x="9" fill="#ffffff" font-size="12pt" font-family="lt_regular"  y="17">Fare&#160;</text><text text-decoration="none" x="0" fill="#ffffff" font-size="12pt" font-family="lt_regular"  y="39">Details</text><text text-decoration="none" x="49" fill="#4b4b4b" font-size="10pt" font-family="noto_regular"  y="39"></text></g></g><g id="CM1RMZ6XXtc"><g><path d="M 1210,475 L 1130,475" fill="none" stroke="#7E7E7E" stroke-width="2" stroke-linecap="round" stroke-linejoin="round"/></g></g><g id="yQB2gwdLJwF"><g><path d="M 1260,500 L 1330,542" fill="none" stroke="#9A9A9A" stroke-width="2" stroke-linecap="round" stroke-linejoin="round"/></g></g><g id="SjbVR62HHOY"><g><path d="M 1260,500 L 1400,510" fill="none" stroke="#9A9A9A" stroke-width="2" stroke-linecap="round" stroke-linejoin="round"/></g></g><g id="lT18m4KGEjj"><g><path d="M 1310,475 L 1380,415" fill="none" stroke="#9A9A9A" stroke-width="2" stroke-linecap="round" stroke-linejoin="round"/></g></g><g id="zabFskkZ00l"><g><path d="M 1310,475 L 1390,460" fill="none" stroke="#9A9A9A" stroke-width="2" stroke-linecap="round" stroke-linejoin="round"/></g></g><g id="nRJxa1XEKr5"><g transform="translate(700 740)"><ellipse cx="50" cy="25" rx="50" ry="25" fill="rgb(56,128,189)" stroke="#3880bd" stroke-width="2" stroke-linecap="round" stroke-linejoin="round" stroke-dasharray="0 0"/></g><g transform="translate(719, 743) rotate(0, 31, 22)" width="62" height="44"><text text-decoration="none" x="0" fill="#ffffff" font-size="12pt" font-family="lt_regular"  y="17">Payment&#160;</text><text text-decoration="none" x="11.5" fill="#ffffff" font-size="12pt" font-family="lt_regular"  y="39">mode</text><text text-decoration="none" x="50.5" fill="#4b4b4b" font-size="10pt" font-family="noto_regular"  y="39"></text></g></g><g id="Gbd5sMmPbju"><g><path d="M 850,700 L 770,742" fill="none" stroke="#9A9A9A" stroke-width="2" stroke-linecap="round" stroke-linejoin="round"/></g></g><g id="ZxKY8yqxR74"><g><path d="M 850,700 L 930,742" fill="none" stroke="#9A9A9A" stroke-width="2" stroke-linecap="round" stroke-linejoin="round"/></g></g><g id="0STV5p1cCEk"><g transform="translate(880 740)"><ellipse cx="50" cy="25" rx="50" ry="25" fill="rgb(56,128,189)" stroke="#3880bd" stroke-width="2" stroke-linecap="round" stroke-linejoin="round" stroke-dasharray="0 0"/></g><g transform="translate(889.5, 754) rotate(0, 40.5, 11)" width="81" height="22"><text text-decoration="underline" x="0" fill="#ffffff" font-size="12pt" font-family="lt_regular"  y="17">Payment_id</text><text text-decoration="none" x="82" fill="#4b4b4b" font-size="10pt" font-family="noto_regular"  y="17"></text></g></g><g id="6W2wsZi4REx"><g transform="translate(600 810)"><ellipse cx="55" cy="27.5" rx="55" ry="27.5" fill="rgb(56,128,189)" stroke="#3880bd" stroke-width="2" stroke-linecap="round" stroke-linejoin="round" stroke-dasharray="0 0"/><ellipse cx="55" cy="27.5" rx="50" ry="22.5" fill="rgb(56,128,189)" stroke="#3880bd" stroke-width="2" stroke-linecap="round" stroke-linejoin="round" stroke-dasharray="0 0"/></g><g transform="translate(640, 826.5) rotate(0, 15, 11)" width="30" height="22"><text text-decoration="none" x="0" fill="#ffffff" font-size="12pt" font-family="lt_regular"  y="17">card</text><text text-decoration="none" x="31" fill="#4b4b4b" font-size="10pt" font-family="noto_regular"  y="17"></text></g></g><g id="J7fYqTtcSbm"><g transform="translate(790 810)"><ellipse cx="50" cy="25" rx="50" ry="25" fill="rgb(56,128,189)" stroke="#3880bd" stroke-width="2" stroke-linecap="round" stroke-linejoin="round" stroke-dasharray="0 0"/></g><g transform="translate(824.5, 824) rotate(0, 15.5, 11)" width="31" height="22"><text text-decoration="none" x="0" fill="#ffffff" font-size="12pt" font-family="lt_regular"  y="17">cash</text><text text-decoration="none" x="32" fill="#4b4b4b" font-size="10pt" font-family="noto_regular"  y="17"></text></g></g><g id="D1cp7Z8rvUf"><g><path d="M 750,790 L 690,820" fill="none" stroke="#9A9A9A" stroke-width="2" stroke-linecap="round" stroke-linejoin="round"/></g></g><g id="PMhRwzx0E5j"><g><path d="M 750,790 L 800,820" fill="none" stroke="#9A9A9A" stroke-width="2" stroke-linecap="round" stroke-linejoin="round"/></g></g><g id="ys5hb6sJxfN"><g transform="translate(510 880)"><ellipse cx="50" cy="25" rx="50" ry="25" fill="rgb(56,128,189)" stroke="#3880bd" stroke-width="2" stroke-linecap="round" stroke-linejoin="round" stroke-dasharray="0 0"/></g><g transform="translate(531.5, 883) rotate(0, 28.5, 22)" width="57" height="44"><text text-decoration="underline" x="11.5" fill="#ffffff" font-size="12pt" font-family="lt_regular"  y="17">Card&#160;</text><text text-decoration="underline" x="0" fill="#ffffff" font-size="12pt" font-family="lt_regular"  y="39">Number</text><text text-decoration="none" x="57" fill="#4b4b4b" font-size="10pt" font-family="noto_regular"  y="39"></text></g></g><g id="5IWNyfOC8py"><g transform="translate(680 880)"><ellipse cx="50" cy="25" rx="50" ry="25" fill="rgb(56,128,189)" stroke="#3880bd" stroke-width="2" stroke-linecap="round" stroke-linejoin="round" stroke-dasharray="0 0"/></g><g transform="translate(691, 894) rotate(0, 39, 11)" width="78" height="22"><text text-decoration="none" x="0" fill="#ffffff" font-size="12pt" font-family="lt_regular"  y="17">expiry&#160;</text><text text-decoration="none" x="47" fill="#ffffff" font-size="12pt" font-family="lt_regular"  y="17">date</text><text text-decoration="none" x="78" fill="#4b4b4b" font-size="10pt" font-family="noto_regular"  y="17"></text></g></g><g id="BUAazhQWQed"><g><path d="M 650,860 L 600,890" fill="none" stroke="#9A9A9A" stroke-width="2" stroke-linecap="round" stroke-linejoin="round"/></g></g><g id="a0x85vdU394"><g><path d="M 650,860 L 690,890" fill="none" stroke="#9A9A9A" stroke-width="2" stroke-linecap="round" stroke-linejoin="round"/></g></g></svg>